<svg id="svg" version="1.1" xmlns="http://www.w3.org/2000/svg" xmlns:xlink="http://www.w3.org/1999/xlink" width="400" height="400" viewBox="0, 0, 400,400"><g id="svgg"><path id="path0" d="M153.167 23.894 C 134.234 25.108,114.868 29.700,96.708 37.282 C 92.068 39.219,91.410 39.547,91.694 39.781 C 91.771 39.844,99.933 42.039,109.833 44.659 C 119.733 47.279,127.999 49.485,128.201 49.561 C 128.403 49.638,128.814 49.325,129.115 48.866 L 129.661 48.032 122.473 41.441 C 118.520 37.815,115.439 34.798,115.626 34.736 C 116.120 34.571,122.827 35.585,127.667 36.556 C 171.038 45.260,202.247 70.344,228.168 117.333 C 229.938 120.542,231.302 122.867,231.200 122.500 C 231.097 122.133,229.156 115.005,226.886 106.659 C 224.617 98.313,222.647 91.129,222.509 90.696 C 222.284 89.985,222.674 90.124,226.489 92.115 C 248.122 103.407,262.537 120.721,270.298 144.736 C 272.013 150.043,272.091 149.552,269.246 151.400 C 260.970 156.776,253.848 158.076,247.971 155.286 C 243.504 153.164,241.745 151.035,237.991 143.204 C 234.740 136.423,235.571 136.702,230.491 140.692 C 205.286 160.488,196.062 159.183,171.377 132.333 C 138.150 96.191,132.965 91.412,125.293 89.859 C 110.692 86.905,76.843 100.787,56.000 118.278 C 54.588 119.463,57.726 118.987,78.000 114.942 C 89.757 112.596,93.841 112.267,95.555 113.528 C 97.386 114.874,122.661 146.117,122.251 146.527 C 122.183 146.595,116.765 148.275,110.210 150.260 C 103.656 152.245,98.303 153.974,98.314 154.101 C 98.324 154.229,98.333 155.158,98.333 156.167 L 98.333 158.000 126.750 158.012 C 169.455 158.030,168.584 157.930,177.341 163.858 C 191.724 173.594,203.113 173.965,218.772 165.207 C 231.415 158.136,235.977 158.191,244.471 165.518 C 246.168 166.982,255.006 176.086,271.151 193.000 C 276.206 198.297,280.437 204.674,279.509 205.602 C 279.408 205.703,269.015 205.304,256.413 204.715 C 243.811 204.126,233.024 203.650,232.443 203.656 C 231.389 203.667,231.386 203.673,231.153 205.848 C 230.866 208.527,230.432 208.178,235.725 209.525 C 261.655 216.123,286.414 220.201,306.583 221.198 C 309.196 221.327,311.333 221.501,311.333 221.584 C 311.333 221.887,306.207 229.209,304.880 230.802 C 300.717 235.799,299.201 235.802,286.833 230.830 C 275.395 226.232,270.138 224.646,252.019 220.326 C 240.651 217.615,240.052 217.584,236.126 219.506 C 231.626 221.707,233.821 230.540,240.090 235.460 C 248.618 242.154,267.792 263.570,271.635 270.696 C 279.617 285.493,271.214 290.222,242.333 287.184 C 211.582 283.950,193.950 276.422,173.172 257.655 C 165.790 250.988,159.625 245.741,147.333 235.662 C 126.970 218.965,123.326 215.790,109.333 202.547 C 99.360 193.109,99.981 193.909,101.350 192.250 C 102.595 190.741,103.209 190.690,108.100 191.687 C 122.312 194.583,133.118 200.908,154.167 218.652 C 157.283 221.279,160.122 223.670,160.474 223.964 C 161.418 224.754,156.177 217.120,152.603 212.500 C 131.490 185.209,96.888 170.845,78.426 181.708 C 71.036 186.056,67.046 193.502,65.032 206.704 C 64.174 212.324,62.535 233.512,62.507 239.333 L 62.500 240.833 64.046 241.011 L 65.593 241.189 67.002 234.678 C 71.564 213.590,77.432 202.722,88.331 195.169 C 90.104 193.940,90.052 193.321,88.993 203.167 C 83.989 249.686,88.818 284.813,104.556 316.363 C 131.124 369.629,193.402 391.318,245.630 365.494 C 313.297 332.036,352.583 259.398,344.148 183.333 C 333.608 88.276,249.119 17.741,153.167 23.894 M149.159 130.250 L 163.702 146.833 162.601 147.285 C 143.536 155.110,116.875 132.951,128.880 119.258 C 131.466 116.308,134.045 113.667,134.339 113.667 C 134.492 113.667,141.161 121.129,149.159 130.250 M116.522 229.068 L 120.654 237.302 122.410 236.684 C 131.191 233.594,134.093 232.649,134.266 232.822 C 134.460 233.016,129.064 279.368,128.818 279.623 C 128.752 279.690,128.616 279.390,128.514 278.956 C 128.412 278.522,127.151 273.331,125.712 267.422 L 123.095 256.677 123.884 251.619 C 124.317 248.837,124.618 246.507,124.552 246.441 C 124.486 246.375,122.808 246.548,120.825 246.827 C 118.841 247.105,116.949 247.333,116.622 247.333 C 116.237 247.333,114.937 245.793,112.956 242.991 C 111.267 240.602,109.785 238.765,109.663 238.907 C 109.540 239.050,108.896 241.717,108.231 244.833 L 107.023 250.500 104.761 252.591 C 99.098 257.827,98.000 258.733,98.000 258.167 C 98.000 257.422,105.334 208.982,105.544 208.339 C 105.707 207.841,108.871 213.817,116.522 229.068 M148.447 250.757 C 147.794 254.641,146.044 266.821,146.127 266.905 C 146.186 266.964,148.390 264.647,151.025 261.756 C 153.660 258.865,155.987 256.517,156.196 256.539 C 156.683 256.588,160.333 259.335,160.333 259.651 C 160.333 259.990,143.752 279.363,143.459 279.367 C 143.324 279.368,142.374 276.622,141.346 273.264 L 139.477 267.159 140.547 255.496 C 141.135 249.082,141.628 243.783,141.642 243.722 C 141.775 243.131,148.551 250.136,148.447 250.757 M311.163 251.167 C 314.085 267.364,308.867 277.696,296.867 279.474 C 294.869 279.770,293.197 279.972,293.151 279.923 C 292.967 279.725,291.667 272.983,291.667 272.229 C 291.667 270.770,294.549 266.673,303.439 255.500 C 310.785 246.268,310.325 246.526,311.163 251.167 M171.658 275.065 C 175.754 283.554,179.231 290.643,179.386 290.817 C 179.540 290.991,179.667 289.566,179.668 287.650 C 179.668 285.734,179.767 281.580,179.887 278.418 L 180.105 272.670 182.969 274.211 C 184.544 275.059,186.009 275.921,186.225 276.126 C 186.521 276.410,186.562 282.505,186.391 301.333 L 186.167 326.167 178.265 306.500 L 170.364 286.833 170.349 291.068 L 170.333 295.303 167.150 298.985 C 165.400 301.010,163.900 302.667,163.817 302.667 C 163.734 302.667,163.667 292.908,163.667 280.980 C 163.667 269.053,163.789 259.370,163.939 259.462 C 164.088 259.555,167.562 266.576,171.658 275.065 M207.290 285.849 L 217.080 290.121 222.011 295.644 C 224.723 298.681,226.918 301.188,226.888 301.214 C 226.139 301.864,198.515 319.626,198.412 319.523 C 198.331 319.442,199.586 316.899,201.201 313.872 L 204.138 308.370 209.874 304.477 L 215.610 300.584 213.388 297.747 L 211.167 294.910 207.667 293.666 C 205.742 292.982,203.829 292.318,203.417 292.189 L 202.667 291.955 202.667 297.327 L 202.667 302.699 200.117 306.099 C 198.715 307.970,197.440 309.643,197.284 309.817 C 197.127 309.992,197.000 303.677,197.000 295.714 C 197.000 287.783,197.112 281.358,197.250 281.435 C 197.387 281.513,201.906 283.499,207.290 285.849 M301.345 287.583 C 300.229 289.188,299.057 290.838,298.739 291.252 C 298.274 291.857,295.904 292.642,286.577 295.283 C 280.206 297.087,274.940 298.624,274.876 298.698 C 274.675 298.930,269.723 319.494,269.839 319.613 C 269.899 319.675,272.574 318.357,275.782 316.684 L 281.616 313.642 283.630 310.071 L 285.643 306.500 280.905 306.333 L 276.167 306.167 285.607 303.385 C 290.800 301.855,295.127 300.683,295.225 300.780 C 295.414 300.970,286.533 316.706,285.678 317.696 C 285.084 318.385,260.319 331.764,260.081 331.525 C 259.961 331.405,267.930 294.124,268.153 293.763 C 268.244 293.616,302.194 284.723,302.770 284.696 C 303.233 284.673,302.905 285.339,301.345 287.583 M260.333 295.047 C 260.333 295.457,247.098 323.349,246.725 323.727 C 246.601 323.852,242.955 317.477,238.623 309.560 L 230.745 295.167 240.789 294.993 C 260.689 294.648,260.333 294.647,260.333 295.047 M240.056 300.261 C 240.985 302.442,246.171 311.628,246.363 311.433 C 246.562 311.231,249.989 303.483,251.235 300.417 C 251.367 300.093,250.127 300.000,245.675 300.000 C 242.523 300.000,239.994 300.117,240.056 300.261 M171.672 328.587 C 173.165 333.141,174.719 339.255,175.371 343.131 L 175.800 345.685 178.201 343.300 L 180.602 340.915 180.998 342.826 C 181.659 346.008,184.647 351.229,185.226 350.213 C 185.651 349.467,192.102 342.333,192.352 342.333 C 192.474 342.333,192.661 343.072,192.768 343.974 C 193.043 346.291,196.909 353.026,197.945 352.993 C 198.067 352.989,200.342 350.970,203.000 348.507 L 207.833 344.028 208.407 345.356 C 209.244 347.295,210.799 349.441,213.246 352.035 L 215.406 354.325 217.286 352.646 C 223.552 347.053,237.560 335.783,237.867 336.089 C 237.930 336.152,237.179 338.229,236.199 340.706 C 234.293 345.523,231.118 354.668,230.020 358.509 L 229.349 360.851 225.258 361.621 C 223.008 362.044,219.817 362.405,218.167 362.424 C 213.028 362.482,193.944 361.700,191.667 361.338 C 190.475 361.148,186.050 360.542,181.833 359.992 C 165.263 357.827,159.182 356.334,157.165 353.938 C 156.024 352.581,156.075 352.289,158.206 347.966 C 159.236 345.876,161.090 341.542,162.326 338.333 C 164.831 331.828,166.054 329.248,168.239 325.861 C 169.998 323.133,169.845 323.012,171.672 328.587 " stroke="none" fill="#040404" fill-rule="evenodd"></path><path id="path1" d="M0.000 200.000 L 0.000 400.000 200.000 400.000 L 400.000 400.000 400.000 200.000 L 400.000 0.000 200.000 0.000 L 0.000 0.000 0.000 200.000 M180.167 24.004 C 262.670 31.146,330.639 94.102,343.180 174.994 C 355.312 253.248,316.661 329.769,247.285 364.846 C 219.272 379.009,189.666 380.431,161.000 368.990 C 113.440 350.008,87.192 302.542,87.181 235.500 C 87.179 219.312,87.258 217.780,88.866 202.890 C 89.853 193.753,89.934 194.140,87.426 196.004 C 77.369 203.478,71.777 213.888,67.626 232.865 C 65.619 242.038,65.868 241.504,63.776 241.117 C 62.194 240.824,62.168 240.800,62.252 239.660 C 62.299 239.022,62.641 233.550,63.012 227.500 C 64.752 199.110,67.202 190.484,75.470 183.643 C 83.031 177.388,93.243 176.203,106.624 180.031 C 127.339 185.955,144.642 199.570,159.311 221.486 C 162.159 225.741,162.742 226.088,152.278 217.303 C 133.226 201.307,122.638 195.079,109.640 192.222 C 102.800 190.719,102.669 190.721,101.347 192.367 L 100.214 193.776 102.524 195.953 C 103.794 197.150,107.534 200.688,110.835 203.815 C 122.911 215.253,127.149 218.928,148.333 236.332 C 160.905 246.661,167.395 252.197,174.421 258.587 C 196.104 278.307,218.690 286.447,255.679 287.872 C 276.092 288.659,279.741 280.905,266.966 263.890 C 262.257 257.619,244.997 239.401,240.493 235.949 C 237.506 233.659,236.239 232.091,235.028 229.182 C 231.033 219.586,235.532 216.293,248.509 219.316 C 267.304 223.695,277.086 226.606,287.500 230.921 C 300.187 236.178,301.577 235.839,308.328 225.833 L 311.027 221.833 310.097 221.623 C 309.585 221.507,308.163 221.394,306.937 221.373 C 296.180 221.183,273.755 218.127,256.500 214.500 C 247.975 212.708,231.285 208.701,230.910 208.356 C 230.673 208.138,231.131 203.758,231.421 203.468 C 231.491 203.398,242.330 203.859,255.508 204.492 C 268.685 205.126,279.498 205.612,279.535 205.572 C 279.573 205.532,278.755 203.808,277.718 201.741 C 275.621 197.558,276.818 198.892,254.022 175.358 C 236.623 157.397,234.403 156.767,218.833 165.375 C 203.062 174.095,191.062 173.698,177.333 164.003 C 173.547 161.329,170.334 159.770,167.321 159.143 C 163.674 158.385,139.866 157.935,117.294 158.198 C 106.339 158.325,98.679 158.290,98.569 158.112 C 98.467 157.946,98.281 156.911,98.156 155.811 L 97.930 153.812 109.965 150.173 C 116.584 148.171,122.000 146.447,122.000 146.340 C 122.000 145.852,103.971 123.187,98.529 116.833 C 94.346 111.949,93.855 111.924,75.283 115.624 C 62.918 118.087,55.028 119.473,54.780 119.224 C 54.316 118.760,71.776 106.819,78.374 103.087 C 93.148 94.731,107.044 90.194,120.120 89.456 C 130.723 88.858,134.187 91.744,171.392 132.171 C 196.097 159.015,205.673 160.341,230.667 140.378 C 235.581 136.453,234.713 136.099,238.317 143.500 C 241.987 151.035,243.464 152.850,247.667 154.985 C 253.695 158.048,260.580 156.832,269.397 151.144 L 271.626 149.706 270.944 147.270 C 264.796 125.316,251.074 107.003,232.140 95.484 C 228.932 93.533,222.665 90.178,222.668 90.413 C 222.668 90.461,224.684 97.922,227.147 106.993 C 229.610 116.064,231.576 123.535,231.516 123.596 C 231.455 123.656,230.541 122.084,229.485 120.103 C 202.356 69.233,168.648 42.992,120.812 35.502 C 117.915 35.048,115.516 34.712,115.481 34.755 C 115.445 34.798,118.622 37.758,122.540 41.333 C 126.458 44.908,129.659 47.983,129.654 48.167 C 129.642 48.631,128.822 49.666,128.463 49.670 C 127.664 49.678,91.078 39.810,91.197 39.618 C 91.821 38.608,110.304 31.799,118.561 29.536 C 137.786 24.269,160.090 22.266,180.167 24.004 M133.930 114.080 C 129.269 117.710,125.825 123.294,126.090 126.794 C 126.800 136.170,134.959 144.673,146.167 147.718 C 150.926 149.010,160.391 148.613,162.982 147.011 C 163.351 146.783,143.424 123.452,134.854 114.080 C 134.545 113.742,134.364 113.742,133.930 114.080 M105.670 208.333 C 105.663 208.425,103.951 219.675,101.865 233.333 C 99.779 246.992,98.127 258.225,98.194 258.296 C 98.261 258.368,100.247 256.609,102.608 254.389 L 106.901 250.351 108.192 244.342 C 108.903 241.037,109.569 238.333,109.672 238.333 C 109.776 238.333,111.271 240.355,112.995 242.827 L 116.130 247.320 117.315 247.151 C 123.233 246.304,124.679 246.124,124.775 246.220 C 124.837 246.281,124.519 248.651,124.070 251.486 L 123.253 256.640 126.034 267.903 C 127.751 274.855,128.860 278.784,128.931 278.167 C 128.995 277.617,130.236 267.194,131.690 255.005 C 133.144 242.817,134.333 232.810,134.333 232.769 C 134.333 232.727,131.254 233.758,127.491 235.059 C 123.727 236.361,120.594 237.367,120.528 237.296 C 120.462 237.225,118.452 233.267,116.062 228.500 C 110.977 218.358,105.689 208.095,105.670 208.333 M141.667 244.352 C 141.667 244.580,141.210 249.792,140.653 255.934 L 139.639 267.101 141.357 272.801 C 142.303 275.935,143.181 278.694,143.310 278.931 C 143.462 279.214,146.445 275.964,151.972 269.493 C 156.608 264.065,160.349 259.585,160.284 259.537 C 160.220 259.490,159.248 258.755,158.126 257.905 L 156.084 256.359 151.168 261.763 C 146.080 267.356,145.629 267.781,145.852 266.769 C 145.925 266.438,146.524 262.581,147.181 258.200 L 148.378 250.232 146.605 248.423 C 144.113 245.879,141.667 243.862,141.667 244.352 M309.768 248.237 C 309.022 248.498,297.071 263.558,293.876 268.263 C 291.715 271.445,291.606 272.166,292.575 276.873 C 293.241 280.108,292.940 279.972,297.715 279.196 C 308.462 277.452,313.708 266.913,311.171 252.167 C 310.545 248.527,310.366 248.028,309.768 248.237 M164.000 281.171 L 164.000 302.453 165.250 300.989 C 165.938 300.184,167.287 298.621,168.250 297.515 L 170.000 295.505 170.000 291.086 C 170.000 288.655,170.112 286.669,170.250 286.671 C 170.387 286.673,173.950 295.322,178.167 305.891 L 185.833 325.106 186.081 316.470 C 186.217 311.720,186.292 300.713,186.247 292.010 L 186.167 276.186 183.333 274.607 L 180.500 273.027 180.269 274.264 C 180.142 274.944,180.012 277.600,179.980 280.167 C 179.948 282.733,179.822 286.333,179.701 288.167 L 179.480 291.500 178.280 289.000 C 173.715 279.495,164.303 260.192,164.167 260.055 C 164.075 259.964,164.000 269.466,164.000 281.171 M197.000 295.667 C 197.000 303.367,197.059 309.667,197.132 309.667 C 197.204 309.667,198.475 308.043,199.957 306.058 L 202.650 302.450 202.741 297.104 L 202.833 291.759 207.093 293.296 L 211.353 294.833 213.497 297.636 C 214.676 299.177,215.574 300.547,215.492 300.679 C 215.410 300.812,212.864 302.615,209.834 304.687 C 203.702 308.878,204.518 307.914,200.147 316.141 L 198.213 319.781 199.690 318.777 C 200.502 318.225,206.792 314.128,213.667 309.673 C 220.542 305.217,226.284 301.468,226.428 301.342 C 226.738 301.067,217.591 290.670,216.553 290.117 C 215.526 289.570,197.415 281.667,197.188 281.667 C 197.085 281.667,197.000 287.967,197.000 295.667 M285.667 289.258 C 276.225 291.732,268.452 293.797,268.392 293.847 C 268.267 293.952,260.022 331.472,260.109 331.541 C 260.141 331.566,265.877 328.505,272.857 324.740 L 285.547 317.894 289.357 311.221 C 291.452 307.550,293.660 303.679,294.262 302.619 L 295.358 300.691 293.929 301.116 C 293.143 301.350,288.944 302.582,284.598 303.854 L 276.697 306.167 281.328 306.259 L 285.958 306.351 283.783 310.092 L 281.607 313.833 275.612 316.948 C 272.315 318.660,269.580 320.010,269.534 319.948 C 269.488 319.885,270.630 315.033,272.072 309.167 L 274.693 298.500 286.411 295.162 L 298.129 291.824 300.601 288.393 C 301.960 286.505,303.018 284.916,302.953 284.860 C 302.887 284.805,295.108 286.784,285.667 289.258 M231.056 295.325 C 231.490 296.598,246.547 323.580,246.720 323.398 C 246.927 323.181,256.752 302.730,259.202 297.417 L 260.317 295.000 245.630 295.000 C 236.231 295.000,230.984 295.117,231.056 295.325 M251.333 300.072 C 251.333 300.647,246.542 311.991,246.297 311.996 C 246.134 311.999,240.127 300.997,239.722 299.953 C 239.661 299.796,242.249 299.667,245.472 299.667 C 249.848 299.667,251.333 299.769,251.333 300.072 M168.698 325.334 C 167.140 327.471,164.355 333.350,162.145 339.167 C 161.100 341.917,159.440 345.777,158.456 347.744 C 154.364 355.927,156.344 356.699,193.333 361.348 C 194.708 361.521,198.908 361.734,202.667 361.821 C 206.425 361.909,211.975 362.075,215.000 362.190 C 222.843 362.489,229.641 361.187,229.662 359.382 C 229.671 358.507,233.781 346.456,235.836 341.275 L 237.918 336.028 234.042 338.989 C 228.601 343.146,222.024 348.560,218.534 351.756 L 215.568 354.472 212.695 351.474 C 210.937 349.639,209.437 347.704,208.828 346.488 C 208.281 345.395,207.791 344.433,207.740 344.351 C 207.689 344.270,206.564 345.255,205.240 346.542 C 203.916 347.828,201.731 349.879,200.383 351.100 L 197.934 353.320 196.464 351.576 C 194.695 349.478,192.819 345.890,192.499 343.991 L 192.265 342.608 191.266 343.554 C 190.717 344.074,189.050 345.901,187.560 347.613 L 184.852 350.727 184.079 349.780 C 182.889 348.323,181.070 344.350,180.769 342.553 L 180.500 340.940 178.207 343.316 C 176.946 344.622,175.869 345.647,175.815 345.593 C 175.760 345.538,175.333 343.604,174.866 341.294 C 173.929 336.671,171.366 327.448,170.404 325.241 L 169.790 323.835 168.698 325.334 " stroke="none" fill="#fbfbfb" fill-rule="evenodd"></path><path id="path2" d="M163.083 23.578 C 163.954 23.647,165.379 23.647,166.250 23.578 C 167.121 23.510,166.408 23.453,164.667 23.453 C 162.925 23.453,162.212 23.510,163.083 23.578 M147.167 106.667 C 147.883 107.400,148.544 108.000,148.635 108.000 C 148.727 108.000,148.216 107.400,147.500 106.667 C 146.784 105.933,146.123 105.333,146.031 105.333 C 145.940 105.333,146.451 105.933,147.167 106.667 M131.333 139.104 C 131.333 139.162,131.821 139.649,132.417 140.188 L 133.500 141.167 132.521 140.083 C 131.608 139.074,131.333 138.847,131.333 139.104 M152.917 158.244 C 153.696 158.314,154.971 158.314,155.750 158.244 C 156.529 158.174,155.892 158.116,154.333 158.116 C 152.775 158.116,152.137 158.174,152.917 158.244 M250.000 171.167 C 250.622 171.808,251.206 172.333,251.297 172.333 C 251.389 172.333,250.955 171.808,250.333 171.167 C 249.711 170.525,249.128 170.000,249.036 170.000 C 248.944 170.000,249.378 170.525,250.000 171.167 M92.417 177.896 C 92.737 177.980,93.263 177.980,93.583 177.896 C 93.904 177.813,93.642 177.744,93.000 177.744 C 92.358 177.744,92.096 177.813,92.417 177.896 M258.333 179.833 C 258.955 180.475,259.539 181.000,259.631 181.000 C 259.722 181.000,259.289 180.475,258.667 179.833 C 258.045 179.192,257.461 178.667,257.369 178.667 C 257.278 178.667,257.711 179.192,258.333 179.833 M345.077 196.333 C 345.077 196.975,345.146 197.237,345.230 196.917 C 345.314 196.596,345.314 196.071,345.230 195.750 C 345.146 195.429,345.077 195.692,345.077 196.333 M143.500 202.333 C 144.403 203.250,145.217 204.000,145.308 204.000 C 145.400 204.000,144.736 203.250,143.833 202.333 C 142.930 201.417,142.117 200.667,142.025 200.667 C 141.933 200.667,142.597 201.417,143.500 202.333 M252.417 204.563 C 252.737 204.647,253.262 204.647,253.583 204.563 C 253.904 204.479,253.642 204.411,253.000 204.411 C 252.358 204.411,252.096 204.479,252.417 204.563 M259.417 204.896 C 259.737 204.980,260.262 204.980,260.583 204.896 C 260.904 204.813,260.642 204.744,260.000 204.744 C 259.358 204.744,259.096 204.813,259.417 204.896 M266.417 205.230 C 266.737 205.314,267.262 205.314,267.583 205.230 C 267.904 205.146,267.642 205.077,267.000 205.077 C 266.358 205.077,266.096 205.146,266.417 205.230 M345.077 211.333 C 345.077 211.975,345.146 212.237,345.230 211.917 C 345.314 211.596,345.314 211.071,345.230 210.750 C 345.146 210.429,345.077 210.692,345.077 211.333 M87.077 226.333 C 87.077 226.975,87.146 227.237,87.230 226.917 C 87.314 226.596,87.314 226.071,87.230 225.750 C 87.146 225.429,87.077 225.692,87.077 226.333 M247.000 242.167 C 247.996 243.175,248.886 244.000,248.977 244.000 C 249.069 244.000,248.329 243.175,247.333 242.167 C 246.338 241.158,245.448 240.333,245.356 240.333 C 245.264 240.333,246.004 241.158,247.000 242.167 M87.084 245.167 C 87.088 245.900,87.156 246.161,87.236 245.746 C 87.315 245.331,87.312 244.731,87.229 244.413 C 87.146 244.094,87.080 244.433,87.084 245.167 M163.824 281.000 C 163.824 293.008,163.866 297.921,163.917 291.917 C 163.967 285.912,163.967 276.087,163.917 270.083 C 163.866 264.079,163.824 268.992,163.824 281.000 M186.472 282.667 C 186.472 286.058,186.521 287.446,186.582 285.750 C 186.642 284.054,186.642 281.279,186.582 279.583 C 186.521 277.887,186.472 279.275,186.472 282.667 M179.757 281.667 C 179.757 282.492,179.822 282.829,179.902 282.417 C 179.981 282.004,179.981 281.329,179.902 280.917 C 179.822 280.504,179.757 280.842,179.757 281.667 M170.103 293.500 C 170.105 294.600,170.167 295.010,170.242 294.411 C 170.316 293.812,170.314 292.912,170.238 292.411 C 170.162 291.910,170.101 292.400,170.103 293.500 M253.099 294.915 C 254.528 294.977,256.778 294.977,258.099 294.914 C 259.419 294.851,258.250 294.800,255.500 294.800 C 252.750 294.800,251.669 294.852,253.099 294.915 M241.595 299.913 C 242.563 299.980,244.063 299.980,244.928 299.911 C 245.793 299.843,245.000 299.788,243.167 299.788 C 241.333 299.789,240.626 299.845,241.595 299.913 M191.308 343.250 L 190.500 344.167 191.381 343.392 C 192.037 342.816,192.307 342.730,192.438 343.059 C 192.555 343.352,192.623 343.304,192.640 342.917 C 192.678 342.084,192.239 342.194,191.308 343.250 M216.256 362.575 C 216.855 362.649,217.755 362.648,218.256 362.572 C 218.757 362.495,218.267 362.435,217.167 362.437 C 216.067 362.438,215.657 362.501,216.256 362.575 M198.750 376.576 C 199.438 376.648,200.563 376.648,201.250 376.576 C 201.938 376.504,201.375 376.445,200.000 376.445 C 198.625 376.445,198.063 376.504,198.750 376.576 " stroke="none" fill="#7c7c7c" fill-rule="evenodd"></path><path id="path3" d="M159.088 23.573 C 159.595 23.649,160.345 23.647,160.755 23.568 C 161.165 23.489,160.750 23.426,159.833 23.429 C 158.917 23.431,158.581 23.496,159.088 23.573 M168.417 23.572 C 168.921 23.648,169.746 23.648,170.250 23.572 C 170.754 23.496,170.342 23.433,169.333 23.433 C 168.325 23.433,167.912 23.496,168.417 23.572 M195.653 72.750 C 196.470 73.621,197.183 74.333,197.236 74.333 C 197.486 74.333,197.222 74.034,195.750 72.653 L 194.167 71.167 195.653 72.750 M248.500 108.333 C 249.589 109.433,250.554 110.333,250.646 110.333 C 250.737 110.333,249.922 109.433,248.833 108.333 C 247.745 107.233,246.779 106.333,246.688 106.333 C 246.596 106.333,247.411 107.233,248.500 108.333 M149.667 109.167 C 150.289 109.808,150.872 110.333,150.964 110.333 C 151.056 110.333,150.622 109.808,150.000 109.167 C 149.378 108.525,148.794 108.000,148.703 108.000 C 148.611 108.000,149.045 108.525,149.667 109.167 M91.417 112.896 C 91.737 112.980,92.263 112.980,92.583 112.896 C 92.904 112.813,92.642 112.744,92.000 112.744 C 91.358 112.744,91.096 112.813,91.417 112.896 M103.250 158.249 C 105.862 158.306,110.137 158.306,112.750 158.249 C 115.362 158.193,113.225 158.147,108.000 158.147 C 102.775 158.147,100.637 158.193,103.250 158.249 M144.250 158.248 C 145.579 158.311,147.754 158.311,149.083 158.248 C 150.412 158.184,149.325 158.132,146.667 158.132 C 144.008 158.132,142.921 158.184,144.250 158.248 M247.319 168.417 C 248.137 169.287,248.849 170.000,248.903 170.000 C 249.153 170.000,248.888 169.701,247.417 168.319 L 245.833 166.833 247.319 168.417 M255.333 176.771 C 255.333 176.828,255.821 177.316,256.417 177.854 L 257.500 178.833 256.521 177.750 C 255.608 176.740,255.333 176.513,255.333 176.771 M73.479 185.417 L 72.500 186.500 73.583 185.521 C 74.593 184.608,74.820 184.333,74.562 184.333 C 74.505 184.333,74.017 184.821,73.479 185.417 M263.333 185.104 C 263.333 185.162,263.821 185.649,264.417 186.188 L 265.500 187.167 264.521 186.083 C 263.608 185.074,263.333 184.847,263.333 185.104 M309.750 221.563 C 310.071 221.647,310.596 221.647,310.917 221.563 C 311.237 221.479,310.975 221.411,310.333 221.411 C 309.692 221.411,309.429 221.479,309.750 221.563 M180.077 274.000 C 180.077 274.642,180.146 274.904,180.230 274.583 C 180.314 274.262,180.314 273.737,180.230 273.417 C 180.146 273.096,180.077 273.358,180.077 274.000 M179.757 284.333 C 179.757 285.158,179.822 285.496,179.902 285.083 C 179.981 284.671,179.981 283.996,179.902 283.583 C 179.822 283.171,179.757 283.508,179.757 284.333 M170.045 289.083 C 170.093 291.628,170.242 291.351,170.404 288.416 C 170.457 287.454,170.387 286.666,170.250 286.666 C 170.112 286.667,170.020 287.754,170.045 289.083 M247.592 299.911 C 248.376 299.982,249.576 299.981,250.259 299.909 C 250.941 299.837,250.300 299.780,248.833 299.781 C 247.367 299.782,246.808 299.841,247.592 299.911 M185.999 319.067 C 185.908 322.496,185.949 325.185,186.091 325.043 C 186.233 324.901,186.308 322.095,186.257 318.809 L 186.165 312.833 185.999 319.067 M199.917 361.902 C 200.329 361.981,201.004 361.981,201.417 361.902 C 201.829 361.822,201.492 361.757,200.667 361.757 C 199.842 361.757,199.504 361.822,199.917 361.902 M195.921 376.569 C 196.335 376.649,196.935 376.646,197.254 376.562 C 197.573 376.479,197.233 376.414,196.500 376.417 C 195.767 376.421,195.506 376.489,195.921 376.569 M202.921 376.569 C 203.335 376.649,203.935 376.646,204.254 376.562 C 204.573 376.479,204.233 376.414,203.500 376.417 C 202.767 376.421,202.506 376.489,202.921 376.569 " stroke="none" fill="#9d9d9d" fill-rule="evenodd"></path><path id="path4" d="" stroke="none" fill="#848484" fill-rule="evenodd"></path></g></svg>